<svg width="25" height="22" viewBox="0 0 25 22" fill="none" xmlns="http://www.w3.org/2000/svg">
<path d="M11.5809 10.5764H3.49815M3.26905 11.5669L1.93368 15.2961C1.20231 17.3385 0.836618 18.3597 1.09905 18.9885C1.32694 19.5347 1.81642 19.9487 2.4204 20.1063C3.11591 20.2877 4.16638 19.8458 6.26734 18.962L19.7364 13.2957C21.7871 12.4329 22.8125 12.0017 23.1293 11.4024C23.4047 10.8818 23.4047 10.2709 23.1293 9.75029C22.8125 9.15117 21.7871 8.71978 19.7364 7.85707L6.24411 2.18104C4.14948 1.29986 3.10218 0.859264 2.40737 1.04001C1.80395 1.19697 1.31453 1.60991 1.08584 2.15502C0.822504 2.7827 1.18428 3.8017 1.90786 5.83968L3.27164 9.68096C3.39591 10.031 3.45806 10.206 3.48258 10.3849C3.50435 10.5439 3.50412 10.7046 3.48193 10.8634C3.4569 11.0423 3.39429 11.2172 3.26905 11.5669Z" stroke="black" stroke-opacity="0.61" stroke-width="2" stroke-linecap="round" stroke-linejoin="round"/>
</svg>
