<svg width="23" height="22" viewBox="0 0 23 22" fill="none" xmlns="http://www.w3.org/2000/svg">
<path d="M11.4911 11V16.5" stroke="#5E6366" stroke-width="1.5" stroke-linecap="round"/>
<path d="M11.4911 16.5C9.96202 16.5 8.63119 17.4277 7.9441 18.7962C7.61593 19.4498 8.08684 20.1667 8.71257 20.1667H14.2697C14.8954 20.1667 15.3663 19.4498 15.0381 18.7962C14.351 17.4277 13.0202 16.5 11.4911 16.5Z" stroke="#5E6366" stroke-width="1.5" stroke-linecap="round"/>
<path d="M5.09573 4.58337H4.16814C3.26683 4.58337 2.81617 4.58337 2.53774 4.92303C2.2593 5.26268 2.34095 5.64302 2.50426 6.40369C2.81618 7.85666 3.49276 9.13316 4.40951 10.0834" stroke="#5E6366" stroke-width="1.5" stroke-linecap="round"/>
<path d="M17.8865 4.58337H18.8141C19.7154 4.58337 20.166 4.58337 20.4445 4.92303C20.7229 5.26268 20.6413 5.64302 20.478 6.40369C20.166 7.85666 19.4894 9.13316 18.5727 10.0834" stroke="#5E6366" stroke-width="1.5" stroke-linecap="round"/>
<path d="M11.4911 11C15.0232 11 17.8865 8.14288 17.8865 4.6184C17.8865 4.52598 17.8845 4.43402 17.8806 4.34256C17.8416 3.4266 17.8221 2.96862 17.2034 2.40099C16.5847 1.83337 15.8991 1.83337 14.5281 1.83337H8.45421C7.08314 1.83337 6.3976 1.83337 5.7789 2.40099C5.16019 2.96862 5.14067 3.4266 5.10163 4.34256C5.09773 4.43402 5.09576 4.52598 5.09576 4.6184C5.09576 8.14288 7.95907 11 11.4911 11Z" stroke="#5E6366" stroke-width="1.5" stroke-linecap="round"/>
</svg>
