<svg width="20" height="22" viewBox="0 0 20 22" fill="none" xmlns="http://www.w3.org/2000/svg">
<path d="M10.4095 11.4759C9.0918 11.4759 8.01366 10.9799 7.1751 9.988C6.33655 8.99605 5.91727 7.72069 5.91727 6.16191C5.91727 4.60313 6.33655 3.32777 7.1751 2.33582C8.01366 1.34387 9.0918 0.8479 10.4095 0.8479C11.7273 0.8479 12.8054 1.34387 13.644 2.33582C14.4825 3.32777 14.9018 4.60313 14.9018 6.16191C14.9018 7.72069 14.4825 8.99605 13.644 9.988C12.8054 10.9799 11.7273 11.4759 10.4095 11.4759ZM0.82605 22.8479V19.5178C0.82605 18.6203 1.01572 17.8527 1.39507 17.215C1.77441 16.5774 2.26357 16.0932 2.86254 15.7626C4.20023 15.054 5.48302 14.5226 6.71091 14.1684C7.93879 13.8141 9.17166 13.637 10.4095 13.637C11.6474 13.637 12.8753 13.82 14.0932 14.1861C15.3111 14.5521 16.5889 15.0776 17.9266 15.7626C18.5455 16.0932 19.0446 16.5774 19.424 17.215C19.8033 17.8527 19.993 18.6203 19.993 19.5178V22.8479H0.82605ZM2.62295 20.7223H18.1961V19.5178C18.1961 19.1399 18.1013 18.7797 17.9116 18.4373C17.7219 18.0948 17.4873 17.8409 17.2078 17.6756C15.93 16.9434 14.762 16.4416 13.7038 16.17C12.6457 15.8984 11.5476 15.7626 10.4095 15.7626C9.27149 15.7626 8.1634 15.8984 7.08526 16.17C6.00712 16.4416 4.83913 16.9434 3.5813 17.6756C3.30178 17.8409 3.07218 18.0948 2.89249 18.4373C2.7128 18.7797 2.62295 19.1399 2.62295 19.5178V20.7223ZM10.4095 9.35032C11.1882 9.35032 11.8321 9.04919 12.3412 8.44693C12.8503 7.84468 13.1049 7.08301 13.1049 6.16191C13.1049 5.24082 12.8503 4.47914 12.3412 3.87689C11.8321 3.27463 11.1882 2.9735 10.4095 2.9735C9.63087 2.9735 8.98698 3.27463 8.47786 3.87689C7.96874 4.47914 7.71418 5.24082 7.71418 6.16191C7.71418 7.08301 7.96874 7.84468 8.47786 8.44693C8.98698 9.04919 9.63087 9.35032 10.4095 9.35032Z" fill="#4F46E5"/>
</svg>
